<?xml version="1.0" standalone="no"?>
<!DOCTYPE svg PUBLIC "-//W3C//DTD SVG 20010904//EN"
 "http://www.w3.org/TR/2001/REC-SVG-20010904/DTD/svg10.dtd">
<svg version="1.0" xmlns="http://www.w3.org/2000/svg"
 width="570.000000pt" height="768.000000pt" viewBox="0 0 570.000000 768.000000"
 preserveAspectRatio="xMidYMid meet">

<g transform="translate(0.000000,768.000000) scale(0.100000,-0.100000)"
fill="#ffffff" stroke="none">
<path d="M5242 7488 c-19 -19 -14 -38 13 -48 15 -6 25 -17 25 -30 0 -27 27
-37 48 -17 14 15 14 18 0 34 -9 10 -21 30 -27 46 -11 29 -38 36 -59 15z"/>
<path d="M5086 7454 c-23 -23 -20 -43 9 -54 30 -12 33 -36 4 -43 -30 -8 -46 1
-53 29 -6 23 -9 24 -59 18 -82 -10 -126 -23 -136 -42 -15 -27 -1 -39 61 -51
41 -9 61 -19 72 -37 30 -44 97 -20 131 47 11 19 23 29 39 29 48 0 76 70 31 78
-11 2 -28 13 -38 23 -22 23 -40 24 -61 3z"/>
<path d="M5206 7354 c-25 -26 -35 -67 -18 -78 25 -16 98 57 86 87 -9 25 -37
21 -68 -9z"/>
<path d="M4754 7302 c-58 -43 -144 -126 -144 -140 0 -7 11 -18 25 -24 14 -6
25 -17 25 -24 0 -19 49 -54 76 -54 24 0 186 104 223 144 24 25 21 46 -6 46 -8
0 -26 9 -40 20 -14 11 -38 20 -54 20 -18 0 -32 7 -39 20 -14 26 -20 25 -66 -8z"/>
<path d="M5092 7243 c-30 -20 -42 -34 -40 -48 7 -47 123 -4 123 46 0 35 -32
35 -83 2z"/>
<path d="M4910 7122 c-41 -27 -88 -55 -105 -63 -21 -10 -31 -22 -33 -43 -6
-50 11 -49 101 6 177 108 207 139 141 146 -22 2 -50 -10 -104 -46z"/>
<path d="M4545 7114 c-22 -20 -50 -45 -62 -56 -28 -25 -29 -42 -3 -68 28 -28
54 -25 95 11 43 38 46 22 5 -24 -16 -19 -30 -38 -30 -42 0 -16 81 -85 101 -85
21 0 79 50 79 69 0 7 -11 16 -24 21 -34 12 -49 46 -43 92 4 31 1 41 -15 52
-11 8 -26 25 -32 37 -16 33 -27 32 -71 -7z"/>
<path d="M4940 7020 c-41 -21 -96 -46 -123 -55 -26 -9 -52 -25 -57 -35 -14
-27 -12 -56 5 -70 15 -12 56 4 183 73 54 30 112 86 112 109 0 28 -36 21 -120
-22z"/>
<path d="M4697 7023 c-4 -3 -7 -17 -7 -30 0 -18 5 -23 25 -23 14 0 28 7 31 15
11 27 -30 58 -49 38z"/>
<path d="M4323 6950 c-17 -20 -102 -68 -238 -135 -302 -148 -532 -291 -655
-405 -36 -33 -76 -63 -90 -66 -44 -11 -70 -33 -70 -59 0 -22 11 -30 74 -59 52
-24 79 -43 92 -65 32 -55 77 -50 142 17 20 21 73 58 117 82 138 75 407 241
480 296 39 29 105 79 147 111 42 32 104 69 138 81 102 40 104 81 7 173 -74 69
-102 75 -144 29z m-44 -170 c-113 -96 -476 -343 -613 -416 -86 -47 -109 -53
-100 -29 11 28 262 218 419 318 53 33 255 136 295 149 25 9 24 0 -1 -22z"/>
<path d="M3153 6220 c-12 -5 -42 -40 -67 -77 -34 -51 -70 -87 -148 -148 -57
-44 -162 -129 -235 -188 -218 -180 -397 -297 -496 -323 -28 -7 -58 -21 -64
-31 -19 -26 -16 -67 8 -94 12 -13 30 -43 40 -66 32 -75 102 -93 134 -34 26 50
167 171 594 510 204 162 274 208 346 226 82 22 119 45 123 77 2 19 -4 31 -23
45 -15 10 -51 37 -81 61 -58 45 -95 57 -131 42z"/>
<path d="M1076 5973 c-74 -12 -205 -75 -336 -161 -117 -76 -260 -259 -333
-425 -49 -111 -58 -203 -33 -344 24 -138 48 -191 172 -376 81 -120 119 -187
133 -232 26 -84 42 -113 83 -152 65 -62 123 -73 287 -53 167 21 300 94 496
272 39 34 86 75 105 90 19 15 32 29 29 32 -3 3 -31 -3 -62 -14 -106 -37 -166
-24 -231 52 -47 55 -46 81 4 129 47 45 171 108 226 116 34 4 46 0 86 -32 61
-46 80 -82 72 -135 -5 -28 -3 -40 6 -40 16 0 227 214 235 239 9 29 -10 57 -56
87 -46 29 -68 67 -53 92 6 9 27 25 47 34 50 24 55 53 28 146 -42 142 -171 369
-263 463 -56 57 -162 128 -263 176 -77 36 -80 37 -214 39 -75 1 -149 0 -165
-3z m199 -1387 c11 -7 48 -23 82 -36 34 -12 64 -29 68 -38 7 -19 -19 -42 -47
-42 -11 0 -30 -12 -43 -26 -29 -31 -47 -27 -75 18 -57 92 -47 168 15 124z
m-166 -41 c47 -43 86 -126 72 -153 -11 -21 -105 -73 -164 -92 -36 -11 -43 -10
-102 19 -83 41 -109 73 -101 125 12 72 35 93 138 120 87 24 113 20 157 -19z"/>
<path d="M2563 5233 c-21 -8 -15 -43 10 -54 35 -16 77 4 77 36 0 22 -4 25 -37
24 -21 0 -44 -3 -50 -6z"/>
<path d="M2449 5167 c-44 -30 -45 -58 -1 -69 17 -5 32 -12 32 -17 0 -5 -19
-19 -42 -31 -81 -42 -101 -80 -54 -101 19 -9 28 -8 42 5 56 49 92 74 114 81
36 11 90 53 90 71 0 24 -29 28 -66 10 -19 -9 -37 -16 -39 -16 -3 0 -5 20 -5
45 0 53 -17 59 -71 22z"/>
<path d="M2645 5160 c-8 -14 13 -50 29 -50 25 0 5 -40 -23 -45 -86 -18 -127
-70 -75 -94 25 -11 26 -13 11 -29 -16 -15 -19 -14 -47 13 l-30 29 -28 -27
c-23 -23 -25 -30 -14 -47 14 -23 16 -47 3 -54 -17 -11 -39 5 -51 35 -11 26
-17 29 -41 24 -25 -6 -29 -3 -29 14 0 14 -13 27 -40 41 -22 11 -46 29 -52 40
-7 11 -20 20 -28 20 -18 0 -202 -194 -213 -223 -5 -13 3 -27 30 -50 20 -18 63
-56 95 -86 68 -63 64 -64 168 24 36 30 100 75 143 100 42 26 91 58 108 73 18
14 40 26 49 27 10 1 40 20 67 42 26 22 56 43 66 46 14 5 16 11 7 27 -14 26
-36 26 -51 -1 -7 -14 -14 -18 -21 -11 -14 14 -2 30 40 50 42 20 52 41 24 49
-17 4 -20 11 -15 39 l6 34 -41 0 c-22 0 -44 -4 -47 -10z m-434 -271 c-29 -28
-56 -47 -60 -43 -3 3 18 28 48 55 30 27 57 46 60 43 3 -3 -18 -28 -48 -55z"/>
<path d="M2224 5146 c-17 -8 -34 -21 -37 -30 -4 -9 -15 -16 -26 -16 -23 0 -63
-49 -86 -103 -15 -36 -13 -57 4 -57 15 0 85 61 109 94 17 25 34 35 61 40 42 6
87 47 78 70 -8 20 -60 20 -103 2z"/>
<path d="M2340 5093 c-26 -10 -60 -46 -60 -65 0 -37 109 -12 124 29 11 29 -26
50 -64 36z"/>
<path d="M2528 4773 c-28 -32 -40 -65 -60 -161 -10 -52 -28 -111 -38 -132 -10
-20 -60 -75 -109 -122 -50 -47 -91 -92 -91 -100 0 -7 7 -24 16 -36 33 -48 156
-13 224 64 18 21 55 84 83 141 47 96 51 111 58 208 10 125 3 155 -39 155 -16
0 -36 -8 -44 -17z"/>
<path d="M1926 4745 c-9 -25 16 -55 46 -55 21 0 29 6 34 24 3 14 3 30 -1 35
-10 17 -72 13 -79 -4z"/>
<path d="M2726 4689 c-3 -17 -6 -64 -6 -103 -1 -161 -59 -316 -153 -402 -29
-27 -75 -65 -103 -84 -57 -41 -68 -76 -33 -111 17 -17 29 -20 56 -16 97 16
192 96 265 224 77 134 100 204 106 323 l5 105 -51 48 c-28 26 -58 47 -65 47
-8 0 -17 -14 -21 -31z"/>
<path d="M1862 4698 c-22 -22 -13 -59 22 -94 58 -58 112 -32 82 39 -23 55 -76
83 -104 55z"/>
<path d="M2015 4676 c-16 -12 -17 -17 -6 -44 7 -17 25 -35 42 -42 26 -11 29
-17 29 -56 0 -52 10 -60 44 -33 46 36 51 57 22 88 -14 15 -26 35 -26 44 0 24
-36 57 -63 57 -13 0 -32 -6 -42 -14z"/>
<path d="M1753 4561 c-26 -21 -79 -71 -118 -111 -85 -88 -184 -169 -290 -240
-130 -87 -414 -302 -499 -379 -62 -56 -88 -73 -120 -78 -29 -4 -51 -16 -73
-40 -38 -40 -42 -72 -13 -111 11 -15 25 -54 30 -86 11 -71 39 -106 85 -106 40
0 69 21 101 75 34 58 62 80 294 220 369 224 497 318 656 484 138 144 183 198
190 227 8 32 -19 72 -61 90 -18 7 -47 31 -65 54 -17 22 -40 40 -50 40 -10 0
-40 -18 -67 -39z m47 -161 c0 -27 -220 -229 -375 -345 -149 -111 -437 -284
-474 -285 -38 0 61 80 389 312 113 81 259 187 325 237 121 91 135 99 135 81z"/>
<path d="M1977 4563 c-14 -13 -6 -53 12 -63 36 -19 68 11 56 51 -6 19 -54 27
-68 12z"/>
<path d="M2968 4487 c-9 -9 -21 -51 -28 -98 -30 -209 -112 -340 -294 -470 -87
-62 -100 -84 -65 -112 32 -26 83 -18 168 25 105 53 170 121 231 241 58 115 73
189 63 301 -5 55 -11 75 -33 99 -24 27 -28 28 -42 14z"/>
<path d="M2049 4165 c-115 -65 -148 -76 -200 -61 -20 6 -33 1 -57 -19 -18 -15
-32 -35 -32 -44 0 -39 76 -75 160 -76 106 0 240 94 240 170 0 24 -6 37 -19 45
-29 15 -43 13 -92 -15z"/>
<path d="M3099 4088 c-37 -135 -40 -142 -108 -208 -37 -36 -99 -83 -139 -104
-39 -21 -82 -50 -94 -63 l-23 -25 25 -20 c78 -63 308 55 397 204 51 84 57 189
12 236 -32 36 -56 28 -70 -20z"/>
<path d="M663 3968 c-11 -13 -37 -49 -58 -81 -21 -31 -54 -67 -74 -79 -70 -42
-91 -68 -91 -115 0 -33 5 -45 21 -54 25 -13 32 -7 47 47 11 37 21 47 85 85 80
48 177 140 177 169 0 22 -36 50 -65 50 -12 0 -31 -10 -42 -22z"/>
<path d="M2150 3934 c-87 -37 -155 -48 -235 -38 -87 11 -105 8 -105 -17 0 -64
69 -101 196 -107 108 -5 176 13 230 60 41 36 44 69 9 103 -28 29 -25 29 -95
-1z"/>
<path d="M2295 3741 c-50 -22 -74 -26 -147 -26 -94 0 -105 -5 -84 -46 26 -52
184 -76 293 -44 65 19 88 44 79 86 -13 67 -43 73 -141 30z"/>
<path d="M2900 3602 c-8 -3 -42 -13 -75 -22 -56 -14 -60 -17 -63 -47 -3 -29 0
-33 36 -44 57 -17 146 10 167 51 18 36 18 35 -1 54 -16 16 -37 19 -64 8z"/>
<path d="M3261 3554 c-71 -25 -116 -59 -166 -123 -73 -96 -147 -141 -229 -141
-68 1 -124 34 -212 125 -77 81 -159 135 -206 135 -24 0 -78 -49 -78 -71 0 -23
53 -49 100 -49 52 0 71 -29 69 -110 -1 -67 0 -71 35 -110 28 -31 36 -49 36
-78 0 -20 5 -54 11 -75 9 -32 18 -42 55 -59 94 -41 203 -17 300 66 39 33 42
39 48 103 8 82 23 107 72 123 30 10 51 10 105 0 85 -16 159 -8 214 24 82 49
95 170 24 230 -36 31 -107 35 -178 10z m124 -138 c26 -19 13 -43 -37 -66 -52
-24 -77 -25 -106 -4 -41 28 -20 57 53 75 47 11 70 10 90 -5z"/>
<path d="M2846 3447 c-21 -7 -45 -21 -53 -33 -12 -19 -11 -24 5 -43 33 -42
144 -27 177 22 37 56 -29 84 -129 54z"/>
<path d="M2135 3346 c-13 -13 -29 -43 -35 -67 -17 -69 -41 -117 -101 -209
-157 -240 -473 -562 -635 -646 -88 -46 -105 -62 -106 -101 -2 -64 49 -103 136
-103 53 0 87 12 138 47 45 30 68 25 68 -16 0 -62 77 -42 112 30 9 19 22 65 28
103 6 38 17 80 25 95 7 14 71 91 141 171 69 80 150 172 179 205 29 33 72 83
95 110 56 65 88 86 206 134 55 23 105 49 112 58 30 41 7 120 -48 166 -46 39
-93 44 -154 17 -81 -35 -82 -35 -89 -1 -8 39 -37 41 -72 7z"/>
<path d="M3454 3230 l6 -39 -46 19 c-54 23 -138 35 -186 26 -39 -7 -88 -72
-88 -117 0 -35 57 -111 90 -120 14 -4 57 -7 96 -8 l72 -1 75 -82 c140 -154
320 -383 387 -492 23 -38 59 -92 80 -120 56 -75 61 -90 76 -200 10 -82 17
-104 34 -118 32 -26 60 -22 103 13 40 33 45 50 22 69 -42 35 3 39 97 10 83
-26 103 -25 127 6 52 66 12 136 -102 180 -61 24 -83 39 -148 106 -122 125
-398 467 -481 598 -20 30 -43 82 -53 115 -48 166 -67 195 -127 195 l-41 0 7
-40z"/>
<path d="M1370 2163 c-43 -8 -53 -23 -47 -71 7 -60 34 -93 96 -116 60 -22 56
-39 -13 -57 -52 -14 -96 -54 -96 -88 0 -15 15 -42 36 -66 20 -22 51 -62 69
-90 42 -65 141 -263 171 -343 13 -34 42 -102 65 -150 44 -94 59 -160 59 -263
0 -76 14 -125 40 -139 26 -14 104 -12 118 2 18 18 15 25 -13 32 -14 4 -23 11
-20 16 4 6 39 7 90 4 78 -6 83 -6 95 15 18 34 3 77 -50 140 -26 31 -55 72 -65
91 -15 30 -96 241 -220 575 -18 50 -40 125 -49 168 -19 96 -38 132 -77 153
l-31 16 31 32 c40 41 41 78 2 117 -27 27 -35 29 -98 28 -37 -1 -79 -4 -93 -6z"/>
<path d="M4235 2015 c-42 -22 -55 -43 -55 -86 0 -82 110 -107 184 -42 46 40
29 96 -41 132 -29 15 -52 14 -88 -4z"/>
<path d="M4137 1799 c-8 -13 -34 -87 -57 -164 -23 -77 -55 -178 -71 -225 -17
-47 -52 -166 -80 -265 -76 -274 -83 -289 -161 -368 -71 -72 -78 -88 -52 -125
21 -30 68 -29 140 3 73 32 88 32 82 0 -7 -36 15 -52 48 -34 40 21 54 59 54
144 0 60 6 91 27 143 14 37 45 121 68 187 51 143 119 331 147 400 11 28 49 88
84 134 48 63 64 92 64 116 0 46 -22 60 -99 61 -36 1 -91 5 -123 9 -52 7 -57 6
-71 -16z"/>
<path d="M1565 748 c-32 -11 -75 -46 -75 -60 0 -5 21 -31 46 -58 38 -41 50
-64 68 -127 l22 -78 89 -2 c50 -1 133 -7 186 -14 108 -12 138 -4 178 47 35 44
27 77 -31 144 l-53 59 -85 0 c-47 0 -93 0 -102 0 -9 1 -43 24 -74 51 -49 43
-63 50 -98 49 -23 0 -54 -5 -71 -11z"/>
<path d="M1383 640 c-69 -16 -76 -39 -41 -139 31 -86 64 -121 116 -121 88 0
119 36 107 120 -6 37 -17 55 -59 98 -53 53 -64 56 -123 42z"/>
<path d="M1165 584 c-49 -18 -80 -47 -72 -68 7 -18 43 -21 79 -7 29 11 88 65
88 80 0 15 -47 13 -95 -5z"/>
<path d="M3681 569 c-25 -5 -51 -15 -59 -23 -32 -32 -44 -212 -16 -240 8 -9
22 -16 30 -16 19 0 54 36 54 55 0 27 18 16 25 -15 7 -32 38 -60 66 -60 9 0 24
-11 33 -25 13 -20 25 -25 55 -25 27 0 41 -5 45 -16 5 -14 15 -15 56 -10 32 4
50 3 50 -4 0 -5 11 -10 25 -10 30 0 33 20 5 45 -28 25 -25 35 9 35 20 0 34 -8
45 -26 14 -20 24 -25 49 -22 43 4 48 32 8 52 -17 9 -31 25 -33 38 -7 50 -113
46 -120 -4 -2 -15 -11 -24 -25 -26 -20 -3 -23 1 -23 28 0 37 21 47 127 63 76
11 94 7 73 -18 -20 -24 -5 -43 37 -47 32 -3 38 -6 35 -24 -4 -32 22 -47 65
-39 63 12 82 38 39 55 -17 6 -26 18 -28 37 -3 26 -6 28 -57 31 -56 3 -57 5
-36 54 9 22 -41 48 -94 48 l-40 0 17 30 c16 30 16 32 -2 45 -36 27 -142 12
-130 -18 3 -8 23 -22 45 -32 46 -21 50 -35 12 -35 -34 0 -44 7 -61 40 -37 72
-152 104 -281 79z m216 -157 c-10 -10 -17 -29 -17 -43 0 -30 -9 -43 -37 -58
-32 -16 -33 -14 -19 21 17 39 63 98 78 98 6 0 4 -8 -5 -18z"/>
<path d="M997 532 c-23 -25 -21 -41 6 -47 22 -6 77 9 77 20 0 4 -5 15 -10 26
-13 24 -52 25 -73 1z"/>
<path d="M1245 518 c-11 -6 -33 -22 -49 -35 -19 -16 -38 -23 -53 -20 -13 2
-42 -2 -64 -10 -23 -7 -49 -11 -59 -8 -16 5 -50 -17 -50 -33 1 -32 21 -36 177
-38 92 -2 165 2 176 8 16 8 18 18 14 48 -11 82 -45 115 -92 88z"/>
</g>
</svg>
